<?xml version="1.0" encoding="utf-8"?>
<!-- Generator: Adobe Illustrator 28.2.0, SVG Export Plug-In . SVG Version: 6.00 Build 0)  -->
<svg version="1.1" id="레이어_1" xmlns="http://www.w3.org/2000/svg" xmlns:xlink="http://www.w3.org/1999/xlink" x="0px"
	 y="0px" viewBox="0 0 218.59 123.87" style="enable-background:new 0 0 218.59 123.87;" xml:space="preserve">
<style type="text/css">
	.st0{fill:#EA512C;}
	.st1{fill:#F6AB00;}
	.st2{fill:#009C7C;}
	.st3{fill:#2B6DB6;}
	.st4{fill:#03417D;}
</style>
<g>
	<g>
		<path class="st0" d="M88.22,93.15v15.98H71.55V93.15H88.22z M81.9,98.92h-4.03v4.45h4.03V98.92z M94.41,109.13V83.14h6.67v25.99
			H94.41z"/>
		<path class="st1" d="M106.5,115.8v-14.1h8.69v-2.64h-8.69v-5.91h15.36v14.25h-8.69v2.57h8.69v5.84H106.5z M135.54,109.13v-9.87
			h-3.27v9.87h-6.67V83.14h6.67v10.01h3.27V83.14h6.67v25.99H135.54z"/>
		<path class="st2" d="M159.93,99.26v0.07l6.67,6.05l-4.17,4.65l-5.91-5.35l-5.84,5.35l-4.31-4.72l6.67-5.98v-0.07h-6.12v-6.12h6.18
			V87.8h6.6v5.35h6.11v6.12H159.93z M178.41,109.13v-9.87h-3.27v9.87h-6.67V83.14h6.67v10.01h3.27V83.14h6.67v25.99H178.41z"/>
		<path class="st3" d="M210.23,103.78v15.15H194.6v-15.15h4.45v-4.52h-9.31v-6.12h25.16v6.12h-9.24v4.52H210.23z M202.45,74.11
			c4.45,0,8.06,3.47,8.06,8.06c0,4.38-3.61,7.78-8.06,7.78c-4.31,0-7.99-3.4-7.99-7.78C194.46,77.58,198.14,74.11,202.45,74.11z
			 M202.45,84.18c1.25,0,2.01-0.97,2.01-2.01c0-1.11-0.76-2.02-2.01-2.02c-1.04,0-1.95,0.9-1.95,2.02
			C200.5,83.21,201.41,84.18,202.45,84.18z M203.91,109.55h-2.99v3.61h2.99V109.55z"/>
	</g>
	<g>
		<path class="st4" d="M8.89,49.35h1.9c-0.86,8.29,6.56,14.5,16.92,14.5c8.03,0,14.24-3.63,14.85-9.06
			c0.6-5.87-5.7-8.72-12.78-11.91c-8.63-3.89-18.65-8.12-17.44-19.77c1.21-11.4,11.91-18.73,25.38-18.73
			c11.91,0,20.55,6.91,19.51,16.23h-1.9c0.86-8.03-5.78-13.64-14.85-13.64c-7.94,0-14.16,3.97-14.68,9.76
			c-0.78,6.48,6.13,9.32,13.55,12.43c8.89,3.71,18.48,7.68,17.35,18.73C55.6,58.76,45.15,66.53,30.65,66.53
			C17.7,66.53,7.86,59.11,8.89,49.35z"/>
		<path class="st4" d="M154.21,5.24L121.4,65.67h-5.27L105,32.26L86.87,65.67H81.6L61.48,5.24h17.18l14.5,44.29l10.96-20.03
			L96.02,5.24h17.18l14.5,44.29l24.09-44.29H154.21z"/>
	</g>
	<g>
		<path class="st0" d="M194.43,59.33l-9.74-7.31c-0.01-0.01-0.01-0.02-0.01-0.03v-9.54c0-1.91-1.55-3.46-3.46-3.46l0,0
			c-1.91,0-3.46,1.55-3.46,3.46v0v11.27c0,1.1,0.52,2.14,1.4,2.8l11.27,8.45c1.61,1.21,3.93,0.8,5.02-0.95
			C196.4,62.48,195.89,60.43,194.43,59.33z"/>
		<polygon class="st4" points="214.89,65.67 182.8,5.24 182.8,5.24 182.8,5.24 180.38,5.24 166.37,5.24 133.43,65.67 150.61,65.67 
			181.59,7.51 212.47,65.67 		"/>
	</g>
</g>
</svg>
